<?xml version="1.0" encoding="UTF-8" standalone="no"?>
<!DOCTYPE svg PUBLIC "-//W3C//DTD SVG 1.1//EN"
 "http://www.w3.org/Graphics/SVG/1.1/DTD/svg11.dtd">
<!-- Generated by graphviz version 2.43.0 (0)
 -->
<!-- Title: ERD Pages: 1 -->
<svg width="1001pt" height="606pt"
 viewBox="0.00 0.00 1001.00 606.00" xmlns="http://www.w3.org/2000/svg" xmlns:xlink="http://www.w3.org/1999/xlink">
<g id="graph0" class="graph" transform="scale(1 1) rotate(0) translate(4 602)">
<title>ERD</title>
<!-- USERS -->
<g id="node1" class="node">
<title>USERS</title>
<polygon fill="white" stroke="transparent" points="23.5,-142 23.5,-275 89.5,-275 89.5,-142 23.5,-142"/>
<polygon fill="#4f46e5" stroke="transparent" points="24.5,-246.5 24.5,-273.5 88.5,-273.5 88.5,-246.5 24.5,-246.5"/>
<text text-anchor="start" x="31.5" y="-257.9" font-family="Helvetica,sans-Serif" font-weight="bold" font-size="12.00" fill="white"> &#160;users</text>
<text text-anchor="start" x="31.5" y="-230.7" font-family="Helvetica,sans-Serif" font-size="11.00">PK &#160;id</text>
<text text-anchor="start" x="31.5" y="-204.7" font-family="Helvetica,sans-Serif" font-size="11.00"> &#160;&#160;&#160;&#160;name</text>
<text text-anchor="start" x="31.5" y="-178.7" font-family="Helvetica,sans-Serif" font-size="11.00"> &#160;&#160;&#160;&#160;email</text>
<text text-anchor="start" x="31.5" y="-152.7" font-family="Helvetica,sans-Serif" font-size="11.00"> &#160;&#160;&#160;&#160;role</text>
<polygon fill="none" stroke="#e2e8f0" points="23.5,-142 23.5,-275 89.5,-275 89.5,-142 23.5,-142"/>
</g>
<!-- PATIENTS -->
<g id="node2" class="node">
<title>PATIENTS</title>
<polygon fill="white" stroke="transparent" points="204,-212 204,-345 311,-345 311,-212 204,-212"/>
<polygon fill="#4338ca" stroke="transparent" points="205.5,-316.5 205.5,-343.5 310.5,-343.5 310.5,-316.5 205.5,-316.5"/>
<text text-anchor="start" x="212.5" y="-327.9" font-family="Helvetica,sans-Serif" font-weight="bold" font-size="12.00" fill="white"> &#160;patients</text>
<text text-anchor="start" x="212.5" y="-300.7" font-family="Helvetica,sans-Serif" font-size="11.00">PK &#160;id</text>
<text text-anchor="start" x="212.5" y="-274.7" font-family="Helvetica,sans-Serif" font-size="11.00">FK &#160;user_id</text>
<text text-anchor="start" x="212.5" y="-248.7" font-family="Helvetica,sans-Serif" font-size="11.00"> &#160;&#160;&#160;&#160;date_of_birth</text>
<text text-anchor="start" x="212.5" y="-222.7" font-family="Helvetica,sans-Serif" font-size="11.00"> &#160;&#160;&#160;&#160;patient_code</text>
<polygon fill="none" stroke="#e2e8f0" points="204,-212 204,-345 311,-345 311,-212 204,-212"/>
</g>
<!-- USERS&#45;&gt;PATIENTS -->
<g id="edge1" class="edge">
<title>USERS&#45;&gt;PATIENTS</title>
<path fill="none" stroke="#94a3b8" d="M89.92,-219.9C118.83,-230.07 161.88,-245.22 196.98,-257.56"/>
<polygon fill="#94a3b8" stroke="#94a3b8" points="196.47,-259.98 203.88,-259.99 198.09,-255.36 196.47,-259.98"/>
<text text-anchor="middle" x="154" y="-245.9" font-family="Helvetica,sans-Serif" font-size="9.50" fill="#475569">1:1</text>
</g>
<!-- DOCTORS -->
<g id="node3" class="node">
<title>DOCTORS</title>
<polygon fill="white" stroke="transparent" points="195,-13 195,-172 320,-172 320,-13 195,-13"/>
<polygon fill="#4338ca" stroke="transparent" points="196.5,-143.5 196.5,-170.5 319.5,-170.5 319.5,-143.5 196.5,-143.5"/>
<text text-anchor="start" x="203.5" y="-154.9" font-family="Helvetica,sans-Serif" font-weight="bold" font-size="12.00" fill="white"> &#160;doctors</text>
<text text-anchor="start" x="203.5" y="-127.7" font-family="Helvetica,sans-Serif" font-size="11.00">PK &#160;id</text>
<text text-anchor="start" x="203.5" y="-101.7" font-family="Helvetica,sans-Serif" font-size="11.00">FK &#160;user_id</text>
<text text-anchor="start" x="203.5" y="-75.7" font-family="Helvetica,sans-Serif" font-size="11.00">FK &#160;department_id</text>
<text text-anchor="start" x="203.5" y="-49.7" font-family="Helvetica,sans-Serif" font-size="11.00"> &#160;&#160;&#160;&#160;specialization</text>
<text text-anchor="start" x="203.5" y="-23.7" font-family="Helvetica,sans-Serif" font-size="11.00"> &#160;&#160;&#160;&#160;consultation_fee</text>
<polygon fill="none" stroke="#e2e8f0" points="195,-13 195,-172 320,-172 320,-13 195,-13"/>
</g>
<!-- USERS&#45;&gt;DOCTORS -->
<g id="edge2" class="edge">
<title>USERS&#45;&gt;DOCTORS</title>
<path fill="none" stroke="#94a3b8" d="M89.92,-189.6C116.56,-174.07 155.22,-151.54 188.59,-132.08"/>
<polygon fill="#94a3b8" stroke="#94a3b8" points="189.95,-134.13 194.76,-128.49 187.48,-129.9 189.95,-134.13"/>
<text text-anchor="middle" x="154" y="-156.9" font-family="Helvetica,sans-Serif" font-size="9.50" fill="#475569">1:1</text>
</g>
<!-- APPOINTMENTS -->
<g id="node6" class="node">
<title>APPOINTMENTS</title>
<polygon fill="white" stroke="transparent" points="405.5,-199 405.5,-384 540.5,-384 540.5,-199 405.5,-199"/>
<polygon fill="#b45309" stroke="transparent" points="407,-355.5 407,-382.5 540,-382.5 540,-355.5 407,-355.5"/>
<text text-anchor="start" x="414" y="-366.9" font-family="Helvetica,sans-Serif" font-weight="bold" font-size="12.00" fill="white"> &#160;appointments</text>
<text text-anchor="start" x="414" y="-339.7" font-family="Helvetica,sans-Serif" font-size="11.00">PK &#160;id</text>
<text text-anchor="start" x="414" y="-313.7" font-family="Helvetica,sans-Serif" font-size="11.00">FK &#160;patient_id</text>
<text text-anchor="start" x="414" y="-287.7" font-family="Helvetica,sans-Serif" font-size="11.00">FK &#160;doctor_id</text>
<text text-anchor="start" x="414" y="-261.7" font-family="Helvetica,sans-Serif" font-size="11.00">FK &#160;department_id</text>
<text text-anchor="start" x="414" y="-235.7" font-family="Helvetica,sans-Serif" font-size="11.00"> &#160;&#160;&#160;&#160;appointment_date</text>
<text text-anchor="start" x="414" y="-209.7" font-family="Helvetica,sans-Serif" font-size="11.00"> &#160;&#160;&#160;&#160;status</text>
<polygon fill="none" stroke="#e2e8f0" points="405.5,-199 405.5,-384 540.5,-384 540.5,-199 405.5,-199"/>
</g>
<!-- PATIENTS&#45;&gt;APPOINTMENTS -->
<g id="edge5" class="edge">
<title>PATIENTS&#45;&gt;APPOINTMENTS</title>
<path fill="none" stroke="#94a3b8" d="M311,-281.7C337.18,-283.29 369.29,-285.25 397.92,-286.99"/>
<polygon fill="#94a3b8" stroke="#94a3b8" points="397.99,-289.45 405.12,-287.43 398.29,-284.56 397.99,-289.45"/>
<text text-anchor="middle" x="361" y="-287.9" font-family="Helvetica,sans-Serif" font-size="9.50" fill="#475569">1:N</text>
</g>
<!-- DOCTOR_SCHEDULES -->
<g id="node5" class="node">
<title>DOCTOR_SCHEDULES</title>
<polygon fill="white" stroke="transparent" points="402,0 402,-159 544,-159 544,0 402,0"/>
<polygon fill="#0e7490" stroke="transparent" points="403,-130.5 403,-157.5 543,-157.5 543,-130.5 403,-130.5"/>
<text text-anchor="start" x="410" y="-141.9" font-family="Helvetica,sans-Serif" font-weight="bold" font-size="12.00" fill="white"> &#160;doctor_schedules</text>
<text text-anchor="start" x="410" y="-114.7" font-family="Helvetica,sans-Serif" font-size="11.00">PK &#160;id</text>
<text text-anchor="start" x="410" y="-88.7" font-family="Helvetica,sans-Serif" font-size="11.00">FK &#160;doctor_id</text>
<text text-anchor="start" x="410" y="-62.7" font-family="Helvetica,sans-Serif" font-size="11.00"> &#160;&#160;&#160;&#160;day_of_week</text>
<text text-anchor="start" x="410" y="-36.7" font-family="Helvetica,sans-Serif" font-size="11.00"> &#160;&#160;&#160;&#160;start_time</text>
<text text-anchor="start" x="410" y="-10.7" font-family="Helvetica,sans-Serif" font-size="11.00"> &#160;&#160;&#160;&#160;end_time</text>
<polygon fill="none" stroke="#e2e8f0" points="402,0 402,-159 544,-159 544,0 402,0"/>
</g>
<!-- DOCTORS&#45;&gt;DOCTOR_SCHEDULES -->
<g id="edge4" class="edge">
<title>DOCTORS&#45;&gt;DOCTOR_SCHEDULES</title>
<path fill="none" stroke="#94a3b8" d="M320.25,-88.74C343.46,-87.33 370.13,-85.7 394.58,-84.21"/>
<polygon fill="#94a3b8" stroke="#94a3b8" points="394.91,-86.65 401.75,-83.78 394.61,-81.76 394.91,-86.65"/>
<text text-anchor="middle" x="361" y="-88.9" font-family="Helvetica,sans-Serif" font-size="9.50" fill="#475569">1:N</text>
</g>
<!-- DOCTORS&#45;&gt;APPOINTMENTS -->
<g id="edge6" class="edge">
<title>DOCTORS&#45;&gt;APPOINTMENTS</title>
<path fill="none" stroke="#94a3b8" d="M320.25,-150.06C345.19,-173.3 374.14,-200.29 400.03,-224.41"/>
<polygon fill="#94a3b8" stroke="#94a3b8" points="398.37,-226.22 405.16,-229.2 401.71,-222.64 398.37,-226.22"/>
<text text-anchor="middle" x="361" y="-194.9" font-family="Helvetica,sans-Serif" font-size="9.50" fill="#475569">1:N</text>
</g>
<!-- DEPARTMENTS -->
<g id="node4" class="node">
<title>DEPARTMENTS</title>
<polygon fill="white" stroke="transparent" points="0,-339 0,-446 113,-446 113,-339 0,-339"/>
<polygon fill="#0e7490" stroke="transparent" points="1.5,-417.5 1.5,-444.5 112.5,-444.5 112.5,-417.5 1.5,-417.5"/>
<text text-anchor="start" x="8.5" y="-428.9" font-family="Helvetica,sans-Serif" font-weight="bold" font-size="12.00" fill="white"> &#160;departments</text>
<text text-anchor="start" x="8.5" y="-401.7" font-family="Helvetica,sans-Serif" font-size="11.00">PK &#160;id</text>
<text text-anchor="start" x="8.5" y="-375.7" font-family="Helvetica,sans-Serif" font-size="11.00"> &#160;&#160;&#160;&#160;name</text>
<text text-anchor="start" x="8.5" y="-349.7" font-family="Helvetica,sans-Serif" font-size="11.00"> &#160;&#160;&#160;&#160;slug</text>
<polygon fill="none" stroke="#e2e8f0" points="0,-339 0,-446 113,-446 113,-339 0,-339"/>
</g>
<!-- DEPARTMENTS&#45;&gt;DOCTORS -->
<g id="edge3" class="edge">
<title>DEPARTMENTS&#45;&gt;DOCTORS</title>
<path fill="none" stroke="#94a3b8" d="M105.97,-338.9C124.82,-316.54 145.74,-289.71 162,-263.5 180.56,-233.59 178.35,-222.51 195,-191.5 197.28,-187.25 199.67,-182.93 202.13,-178.59"/>
<polygon fill="#94a3b8" stroke="#94a3b8" points="204.43,-179.52 205.78,-172.23 200.18,-177.09 204.43,-179.52"/>
<text text-anchor="middle" x="154" y="-288.9" font-family="Helvetica,sans-Serif" font-size="9.50" fill="#475569">1:N</text>
</g>
<!-- DEPARTMENTS&#45;&gt;APPOINTMENTS -->
<g id="edge7" class="edge">
<title>DEPARTMENTS&#45;&gt;APPOINTMENTS</title>
<path fill="none" stroke="#94a3b8" d="M113.11,-392.38C166.98,-390.96 250.5,-385.32 320,-365.5 346.69,-357.89 374.4,-345.81 398.73,-333.59"/>
<polygon fill="#94a3b8" stroke="#94a3b8" points="400.04,-335.68 405.17,-330.32 397.82,-331.31 400.04,-335.68"/>
<text text-anchor="middle" x="257.5" y="-388.9" font-family="Helvetica,sans-Serif" font-size="9.50" fill="#475569">1:N</text>
</g>
<!-- MEDICAL_RECORDS -->
<g id="node7" class="node">
<title>MEDICAL_RECORDS</title>
<polygon fill="white" stroke="transparent" points="626,-491 626,-598 760,-598 760,-491 626,-491"/>
<polygon fill="#15803d" stroke="transparent" points="627,-569.5 627,-596.5 759,-596.5 759,-569.5 627,-569.5"/>
<text text-anchor="start" x="634" y="-580.9" font-family="Helvetica,sans-Serif" font-weight="bold" font-size="12.00" fill="white"> &#160;medical_records</text>
<text text-anchor="start" x="634" y="-553.7" font-family="Helvetica,sans-Serif" font-size="11.00">PK &#160;id</text>
<text text-anchor="start" x="634" y="-527.7" font-family="Helvetica,sans-Serif" font-size="11.00">FK &#160;appointment_id</text>
<text text-anchor="start" x="634" y="-501.7" font-family="Helvetica,sans-Serif" font-size="11.00"> &#160;&#160;&#160;&#160;diagnosis</text>
<polygon fill="none" stroke="#e2e8f0" points="626,-491 626,-598 760,-598 760,-491 626,-491"/>
</g>
<!-- APPOINTMENTS&#45;&gt;MEDICAL_RECORDS -->
<g id="edge8" class="edge">
<title>APPOINTMENTS&#45;&gt;MEDICAL_RECORDS</title>
<path fill="none" stroke="#94a3b8" d="M540.77,-371.74C567.09,-403.07 597.74,-439.16 626,-471.5 629.96,-476.03 634.08,-480.7 638.24,-485.38"/>
<polygon fill="#94a3b8" stroke="#94a3b8" points="636.65,-487.27 643.13,-490.86 640.3,-484.01 636.65,-487.27"/>
<text text-anchor="middle" x="585" y="-433.9" font-family="Helvetica,sans-Serif" font-size="9.50" fill="#475569">1:1</text>
</g>
<!-- PRESCRIPTIONS -->
<g id="node8" class="node">
<title>PRESCRIPTIONS</title>
<polygon fill="white" stroke="transparent" points="627,-344 627,-451 759,-451 759,-344 627,-344"/>
<polygon fill="#15803d" stroke="transparent" points="628,-422.5 628,-449.5 758,-449.5 758,-422.5 628,-422.5"/>
<text text-anchor="start" x="635" y="-433.9" font-family="Helvetica,sans-Serif" font-weight="bold" font-size="12.00" fill="white"> &#160;prescriptions</text>
<text text-anchor="start" x="635" y="-406.7" font-family="Helvetica,sans-Serif" font-size="11.00">PK &#160;id</text>
<text text-anchor="start" x="635" y="-380.7" font-family="Helvetica,sans-Serif" font-size="11.00">FK &#160;appointment_id</text>
<text text-anchor="start" x="635" y="-354.7" font-family="Helvetica,sans-Serif" font-size="11.00"> &#160;&#160;&#160;&#160;prescription_code</text>
<polygon fill="none" stroke="#e2e8f0" points="627,-344 627,-451 759,-451 759,-344 627,-344"/>
</g>
<!-- APPOINTMENTS&#45;&gt;PRESCRIPTIONS -->
<g id="edge9" class="edge">
<title>APPOINTMENTS&#45;&gt;PRESCRIPTIONS</title>
<path fill="none" stroke="#94a3b8" d="M540.59,-323.88C565.87,-336.17 594.76,-350.22 620.47,-362.72"/>
<polygon fill="#94a3b8" stroke="#94a3b8" points="619.57,-365.01 626.94,-365.86 621.71,-360.6 619.57,-365.01"/>
<text text-anchor="middle" x="585" y="-349.9" font-family="Helvetica,sans-Serif" font-size="9.50" fill="#475569">1:N</text>
</g>
<!-- PAYMENTS -->
<g id="node10" class="node">
<title>PAYMENTS</title>
<polygon fill="white" stroke="transparent" points="632,-171 632,-304 754,-304 754,-171 632,-171"/>
<polygon fill="#b91c1c" stroke="transparent" points="633,-275.5 633,-302.5 753,-302.5 753,-275.5 633,-275.5"/>
<text text-anchor="start" x="640" y="-286.9" font-family="Helvetica,sans-Serif" font-weight="bold" font-size="12.00" fill="white"> &#160;payments</text>
<text text-anchor="start" x="640" y="-259.7" font-family="Helvetica,sans-Serif" font-size="11.00">PK &#160;id</text>
<text text-anchor="start" x="640" y="-233.7" font-family="Helvetica,sans-Serif" font-size="11.00">FK &#160;appointment_id</text>
<text text-anchor="start" x="640" y="-207.7" font-family="Helvetica,sans-Serif" font-size="11.00"> &#160;&#160;&#160;&#160;amount</text>
<text text-anchor="start" x="640" y="-181.7" font-family="Helvetica,sans-Serif" font-size="11.00"> &#160;&#160;&#160;&#160;status</text>
<polygon fill="none" stroke="#e2e8f0" points="632,-171 632,-304 754,-304 754,-171 632,-171"/>
</g>
<!-- APPOINTMENTS&#45;&gt;PAYMENTS -->
<g id="edge11" class="edge">
<title>APPOINTMENTS&#45;&gt;PAYMENTS</title>
<path fill="none" stroke="#94a3b8" d="M540.59,-275C567.26,-268.4 597.94,-260.8 624.68,-254.18"/>
<polygon fill="#94a3b8" stroke="#94a3b8" points="625.54,-256.49 631.75,-252.43 624.36,-251.73 625.54,-256.49"/>
<text text-anchor="middle" x="585" y="-266.9" font-family="Helvetica,sans-Serif" font-size="9.50" fill="#475569">1:1</text>
</g>
<!-- REVIEWS -->
<g id="node11" class="node">
<title>REVIEWS</title>
<polygon fill="white" stroke="transparent" points="632,-24 632,-131 754,-131 754,-24 632,-24"/>
<polygon fill="#334155" stroke="transparent" points="633,-102.5 633,-129.5 753,-129.5 753,-102.5 633,-102.5"/>
<text text-anchor="start" x="640" y="-113.9" font-family="Helvetica,sans-Serif" font-weight="bold" font-size="12.00" fill="white"> &#160;reviews</text>
<text text-anchor="start" x="640" y="-86.7" font-family="Helvetica,sans-Serif" font-size="11.00">PK &#160;id</text>
<text text-anchor="start" x="640" y="-60.7" font-family="Helvetica,sans-Serif" font-size="11.00">FK &#160;appointment_id</text>
<text text-anchor="start" x="640" y="-34.7" font-family="Helvetica,sans-Serif" font-size="11.00"> &#160;&#160;&#160;&#160;rating</text>
<polygon fill="none" stroke="#e2e8f0" points="632,-24 632,-131 754,-131 754,-24 632,-24"/>
</g>
<!-- APPOINTMENTS&#45;&gt;REVIEWS -->
<g id="edge12" class="edge">
<title>APPOINTMENTS&#45;&gt;REVIEWS</title>
<path fill="none" stroke="#94a3b8" d="M540.59,-226.13C569.71,-197.55 603.61,-164.27 631.94,-136.46"/>
<polygon fill="#94a3b8" stroke="#94a3b8" points="633.88,-137.98 637.16,-131.33 630.45,-134.49 633.88,-137.98"/>
<text text-anchor="middle" x="585" y="-186.9" font-family="Helvetica,sans-Serif" font-size="9.50" fill="#475569">1:1</text>
</g>
<!-- PRESCRIPTION_ITEMS -->
<g id="node9" class="node">
<title>PRESCRIPTION_ITEMS</title>
<polygon fill="white" stroke="transparent" points="842,-331 842,-464 993,-464 993,-331 842,-331"/>
<polygon fill="#15803d" stroke="transparent" points="843.5,-435.5 843.5,-462.5 992.5,-462.5 992.5,-435.5 843.5,-435.5"/>
<text text-anchor="start" x="850.5" y="-446.9" font-family="Helvetica,sans-Serif" font-weight="bold" font-size="12.00" fill="white"> &#160;prescription_items</text>
<text text-anchor="start" x="850.5" y="-419.7" font-family="Helvetica,sans-Serif" font-size="11.00">PK &#160;id</text>
<text text-anchor="start" x="850.5" y="-393.7" font-family="Helvetica,sans-Serif" font-size="11.00">FK &#160;prescription_id</text>
<text text-anchor="start" x="850.5" y="-367.7" font-family="Helvetica,sans-Serif" font-size="11.00"> &#160;&#160;&#160;&#160;medication_name</text>
<text text-anchor="start" x="850.5" y="-341.7" font-family="Helvetica,sans-Serif" font-size="11.00"> &#160;&#160;&#160;&#160;dosage</text>
<polygon fill="none" stroke="#e2e8f0" points="842,-331 842,-464 993,-464 993,-331 842,-331"/>
</g>
<!-- PRESCRIPTIONS&#45;&gt;PRESCRIPTION_ITEMS -->
<g id="edge10" class="edge">
<title>PRESCRIPTIONS&#45;&gt;PRESCRIPTION_ITEMS</title>
<path fill="none" stroke="#94a3b8" d="M759.25,-397.5C782.83,-397.5 809.75,-397.5 834.57,-397.5"/>
<polygon fill="#94a3b8" stroke="#94a3b8" points="834.86,-399.95 841.86,-397.5 834.86,-395.05 834.86,-399.95"/>
<text text-anchor="middle" x="801" y="-399.9" font-family="Helvetica,sans-Serif" font-size="9.50" fill="#475569">1:N</text>
</g>
</g>
</svg>
